<?xml version="1.0" standalone="no"?>
<!DOCTYPE svg PUBLIC "-//W3C//DTD SVG 20010904//EN" "http://www.w3.org/TR/2001/REC-SVG-20010904/DTD/svg10.dtd">
<svg version="1.0" xmlns="http://www.w3.org/2000/svg" width="64.000000pt" height="64.000000pt"
    viewBox="0 0 300.000000 300.000000" preserveAspectRatio="xMidYMid meet">
    <g transform="translate(0.000000,300.000000) scale(0.100000,-0.100000)" fill="#2861bd" stroke="none">
        <path
            d="M1774 2050 c-93 -14 -176 -48 -233 -96 l-32 -26 41 -44 c22 -24 46 -55 52 -69 8 -18 16 -24 27 -18 9 4 36 8 61 8 25 1 54 6 65 12 38 21 108 24 175 8 36 -9 72 -17 81 -18 8 -1 55 35 102 79 98 92 99 89 -4 128 -104 39 -225 52 -335 36z" />
        <path
            d="M611 1500 l2 -530 271 0 c207 0 286 4 335 15 223 53 371 219 396 445 6 55 5 55 -40 104 -25 27 -48 60 -51 73 -9 33 4 74 32 104 l24 25 -39 62 c-22 33 -66 82 -98 107 -139 111 -203 125 -560 125 l-274 0 2 -530z m199 501 c41 -6 37 -8 -51 -15 l-95 -8 -3 -66 c-1 -37 -6 -85 -11 -107 -6 -30 -8 -9 -9 83 l-1 122 63 -1 c34 0 82 -4 107 -8z m425 -141 c97 -34 167 -97 218 -200 29 -59 32 -73 32 -155 -1 -142 -55 -246 -169 -324 -100 -69 -254 -81 -367 -29 -69 31 -150 113 -186 186 -38 78 -45 212 -14 292 76 198 288 298 486 230z m-557 -856 c20 5 23 4 12 -4 -8 -5 -26 -10 -39 -10 -23 0 -23 2 -17 46 3 26 7 79 8 118 2 47 3 32 5 -42 l4 -114 27 6z" />
        <path
            d="M1012 1753 c-61 -21 -136 -99 -157 -164 -31 -91 -6 -207 58 -277 43 -47 105 -74 178 -80 63 -4 75 -2 133 27 71 35 109 77 137 152 25 64 24 115 -2 185 -52 138 -205 207 -347 157z m195 -112 c75 -54 95 -147 48 -227 -34 -59 -79 -84 -147 -84 -139 0 -222 159 -140 269 57 77 164 96 239 42z" />
        <path d="M1074 1552 c-24 -16 -35 -51 -23 -74 16 -30 28 -38 60 -38 52 0 79 69 41 103 -19 18 -59 22 -78 9z" />
        <path
            d="M2111 1803 c-123 -120 -229 -219 -235 -221 -6 -1 -49 36 -95 83 -47 47 -90 85 -96 85 -19 0 -105 -97 -105 -118 0 -10 30 -52 68 -93 37 -41 103 -116 147 -167 44 -51 86 -91 94 -90 12 3 98 116 324 432 71 99 80 112 130 179 26 36 47 72 47 81 0 13 -36 46 -50 46 -3 0 -106 -98 -229 -217z m253 167 c-1 -8 -30 -54 -65 -101 -35 -47 -140 -192 -234 -322 -93 -130 -173 -236 -177 -236 -10 -1 -283 308 -283 319 0 5 17 30 39 56 l39 46 96 -95 96 -96 230 225 c211 205 262 246 259 204z" />
        <path
            d="M2045 1658 c-81 -79 -154 -147 -162 -152 -12 -6 -38 15 -108 84 l-93 93 -17 -27 c-20 -30 -28 -17 128 -192 l91 -101 124 171 c69 94 140 192 159 219 19 26 32 47 30 47 -3 0 -72 -64 -152 -142z m-45 -112 c0 -3 -5 -8 -12 -12 -7 -4 -8 -3 -4 4 7 12 16 16 16 8z m-72 -92 c-18 -25 -36 -48 -40 -50 -3 -2 -19 8 -35 22 -28 26 -28 26 -2 11 25 -15 27 -14 65 24 21 21 40 39 42 39 2 0 -12 -21 -30 -46z" />
        <path
            d="M2079 1430 l-72 -101 22 -23 c30 -32 28 -81 -5 -111 -67 -63 -220 -58 -354 10 -46 23 -49 24 -55 6 -8 -25 -80 -121 -105 -138 -11 -8 -20 -19 -20 -24 0 -20 147 -78 235 -94 263 -46 477 23 555 178 26 51 30 72 30 137 0 104 -20 158 -80 214 -27 25 -56 46 -64 46 -8 0 -47 -45 -87 -100z" />
    </g>
</svg>